<?xml version="1.0" encoding="utf-8"?>
<!-- Generator: Adobe Illustrator 16.0.0, SVG Export Plug-In . SVG Version: 6.00 Build 0)  -->
<!DOCTYPE svg PUBLIC "-//W3C//DTD SVG 1.1//EN" "http://www.w3.org/Graphics/SVG/1.1/DTD/svg11.dtd">
<svg version="1.1"
	 id="svg8" xmlns:dc="http://purl.org/dc/elements/1.1/" xmlns:cc="http://creativecommons.org/ns#" xmlns:rdf="http://www.w3.org/1999/02/22-rdf-syntax-ns#" xmlns:svg="http://www.w3.org/2000/svg" xmlns:sodipodi="http://sodipodi.sourceforge.net/DTD/sodipodi-0.dtd" xmlns:inkscape="http://www.inkscape.org/namespaces/inkscape" sodipodi:docname="promotion, business, communication, marketing, stickers, sticker.svg" inkscape:version="1.0.2-2 (e86c870879, 2021-01-15)"
	 xmlns="http://www.w3.org/2000/svg" xmlns:xlink="http://www.w3.org/1999/xlink" x="0px" y="0px" width="512px" height="512px"
	 viewBox="0 0 512 512" enable-background="new 0 0 512 512" xml:space="preserve">
<g id="layer1" inkscape:label="Layer 1" inkscape:groupmode="layer">
	<g id="g8696" transform="translate(-0.02538317,0.51834473)">
		<g id="g15218" transform="translate(-0.11811756)">
			<g id="g16035" transform="translate(3.0788314)">
				<path id="path15747" fill="#FF4B3D" d="M120.844,366.624c0,0,27.143,119.857,48.929,119.857s44.286-16.643,53.571-33.786
					c9.286-17.143-53.214-66.429-67.143-83.571C142.273,351.982,120.844,366.624,120.844,366.624L120.844,366.624z"/>
				<path id="path15745" fill="#171D8F" d="M80.203,309.641c-0.676,2.03-28.753,2.368-23.679,37.888
					c5.074,35.519,44.652,19.958,44.652,19.958L80.203,309.641z"/>
				<path id="path15749" fill="#CF1531" d="M144.572,361.45c-1.61,4.781-1.689,11.443,0.201,20.531c0,0,42.856,42.857,52.143,60.715
					c4.499,8.651,5.637,21.291,6.191,32.043c8.681-6.144,15.9-14.038,20.236-22.043c9.286-17.143-53.214-66.43-67.143-83.572
					C152.652,364.756,148.616,362.459,144.572,361.45z"/>
				<path id="path15743" sodipodi:nodetypes="csssscc" fill="#7738C7" d="M165.046,249.323c0,0-17.278-3.293-28.535,0.294
					c-26.178,8.344-48.686,29.332-57.384,45.389c-12.438,22.963-9.568,69.846,11.96,87.547c12.654,10.404,47.856,5.824,84.209-6.443
					c25.491-8.603,14.094-38.624,14.094-38.624L165.046,249.323z"/>
				<path id="path15741" sodipodi:nodetypes="ccccc" fill="#FFC517" d="M360.363,44.807L138.926,261.755
					c-16.985,24.152-10.491,90.68,28.724,97.826l260.383,14.716L360.363,44.807z"/>
				<path id="path15739" sodipodi:nodetypes="sssss" fill="#FFC517" d="M465.873,201.496
					c16.858,122.128,0.037,191.722-33.398,196.338c-33.436,4.615-70.824-57.496-87.683-179.624
					C327.933,96.082,344.754,29.194,378.19,24.578C411.625,19.963,449.014,79.368,465.873,201.496z"/>
				<path id="path15617" fill="#FFAC17" d="M450.353,203.638c12.537,90.82,2.544,167.226-22.32,170.659
					s-55.184-67.409-67.721-158.229l0,0c-12.537-90.82-2.544-167.227,22.32-170.659C407.496,41.977,437.817,112.819,450.353,203.638
					L450.353,203.638z"/>
				<path id="path15734" fill="#7738C7" d="M355.198,157.693c0.647,18.796,2.38,38.572,5.113,58.375
					c2.711,19.632,6.361,38.973,10.78,57.107l39.519-20.964l-10.826-84.739L355.198,157.693z"/>
				<path id="path15732" fill="#FFFFFF" d="M417.034,208.238c3.258,23.605,0.661,43.464-5.802,44.357
					c-6.463,0.892-14.343-17.521-17.602-41.126l0,0c-3.259-23.605-0.661-43.465,5.802-44.357l0,0
					C405.895,166.219,413.776,184.632,417.034,208.238z"/>
				<path id="path15754" sodipodi:nodetypes="cssc" fill="#FFC517" d="M173.523,402.874c0,0,10.714,19.644,20,20.357
					s15.537-14.424,14.286-17.143C205.219,400.464,166.915,391.982,173.523,402.874L173.523,402.874z"/>
				<path id="path15766" fill="#FFFFFF" d="M85.725,311.113c2.021-1.515,25.759-9.849,21.971-2.778
					c-3.788,7.072-16.162,11.365-20.96,9.85S80.675,313.892,85.725,311.113z"/>
				<path id="path15768" fill="#FFFFFF" d="M84.967,327.781c2.021-1.516,25.759-9.849,21.971-2.778
					c-3.788,7.071-16.163,11.364-20.961,9.85C81.179,333.337,79.917,330.56,84.967,327.781z"/>
				<path id="path15770" fill="#FFFFFF" d="M89.261,347.227c2.02-1.515,25.759-9.849,21.971-2.778
					c-3.788,7.071-16.163,11.365-20.96,9.85C85.473,352.782,84.21,350.005,89.261,347.227z"/>
				<path id="path15772" fill="#FFAC17" d="M321.846,222.833c-3.028,1.174,12.787,91.799,18.186,99.896
					c6.061,9.092-86.873,43.437-150.641,14.756c-34.948-15.719-36.996-56.558-31.723-94.094l-18.742,18.363
					c-16.985,24.152-10.492,90.681,28.723,97.826l224.566,12.691c-28.359-53.988-61.117-124.623-68.346-145.506
					C322.875,223.894,322.218,222.689,321.846,222.833z"/>
				<path id="path15800" fill="#7738C7" d="M120.004,24.482c-47.703,0-86.374,38.671-86.374,86.374c0,0.001,0,0.002,0,0.003
					c0.002,37.12,23.722,70.088,58.917,81.888c6.54,26.139,33.852,32.349,44.686,32.349c17.525,0-4.648-4.542-12.337-28.005
					c45.728-2.594,81.48-40.431,81.481-86.232c0.001-47.703-38.668-86.375-86.371-86.377
					C120.006,24.482,120.005,24.482,120.004,24.482z"/>
				<path id="path15802" fill="#171D8F" d="M33.701,114.364c1.457,35.805,24.87,66.992,58.846,78.383
					c6.54,26.139,33.852,32.349,44.686,32.349c17.525,0-4.648-4.542-12.337-28.005c19.881-1.128,38.762-9.091,53.446-22.542
					c-14.67,1.038-30.682,0.962-48.067-0.784C82.513,168.969,52.409,142.502,33.701,114.364z"/>
				<path id="path15812" fill="#FFFFFF" d="M120.666,54.66c-11.145,0-20.179,9.033-20.18,20.178c0,0,0,0.001,0,0.002
					c0.001,8.493,5.32,16.076,13.305,18.969c-7.05,3.314-20.238,14.272-22.768,25.07l-4,17.076
					c-3.298,14.081,67.285,14.819,67.285,0.357l-4-17.434c-2.246-9.791-15.829-21.513-22.881-25.029
					c8.043-2.861,13.415-10.473,13.416-19.01C140.844,63.695,131.81,54.66,120.666,54.66C120.666,54.66,120.666,54.66,120.666,54.66
					L120.666,54.66z"/>
				<path id="path15818" fill="#FFFFFF" d="M167.791,71.034c-7.66,0-13.87,6.209-13.871,13.869c0,0,0,0.001,0,0.001
					c0,5.837,3.657,11.049,9.145,13.038c-4.846,2.278-13.911,9.81-15.649,17.232l-2.75,11.738
					c-2.267,9.678,46.249,10.186,46.249,0.246l-2.749-11.983c-1.544-6.729-10.88-14.787-15.728-17.204
					c5.528-1.966,9.221-7.199,9.222-13.066C181.661,77.245,175.451,71.034,167.791,71.034L167.791,71.034L167.791,71.034z"/>
				<path id="path15820" fill="#FFFFFF" d="M78.684,69.606c-7.66,0-13.87,6.209-13.871,13.869c0,0,0,0.001,0,0.001
					c0.001,5.837,3.657,11.05,9.145,13.038c-4.846,2.278-13.911,9.81-15.649,17.232l-2.749,11.737
					c-2.267,9.678,46.249,10.186,46.249,0.246l-2.75-11.983c-1.544-6.729-10.88-14.787-15.727-17.204
					c5.528-1.966,9.221-7.199,9.222-13.066C92.553,75.816,86.344,69.606,78.684,69.606L78.684,69.606L78.684,69.606z"/>
				<path id="path16008" fill="#FF4B3D" d="M331.487,343.945c-32.246,0.107-59.359,24.226-63.221,56.24
					c-9.456-1.479-22.194-5.502-28.492-16.418c-10.714-18.571-5.357,16.785,9.643,29.643c6.836,5.859,14.619,9.998,21.086,12.783
					c8.106,27.025,32.98,45.534,61.195,45.535c35.286,0,63.893-28.605,63.893-63.892c0-0.001,0-0.001,0-0.001
					c-0.001-35.286-28.606-63.891-63.893-63.891C331.627,343.945,331.557,343.945,331.487,343.945z"/>
				<path id="path16004" sodipodi:nodetypes="csscssssssssssc" fill="#FFFFFF" d="M312.041,400.327c0,0,4.21-8.111,10.884-12.014
					c6.674-3.901,8.012-20.094,12.529-19.99c4.518,0.102,3.18,20.621,3.18,20.621s5.926,0.615,11.089,0.615
					c5.032,0,9.446,0.925,9.344,5.854c-0.103,4.928-2.361,2.86-0.821,6.454s0.514,6.675-0.719,8.933
					c-1.232,2.26,2.567,4.826-0.41,8.316c-2.979,3.491,0.821,4.621-3.8,6.47c-4.62,1.848-12.013,7.495-25.258,4.723
					s-15.824,0.411-20.125,0.411c-4.273,0-5.75-4.313-5.75-11.191c0-6.88-1.27-15.027,1.735-17.002
					C305.622,401.406,310.193,403.202,312.041,400.327L312.041,400.327z"/>
			</g>
		</g>
	</g>
</g>
</svg>
