<svg id="Layer_1" data-name="Layer 1" xmlns="http://www.w3.org/2000/svg" viewBox="0 0 300 300"><defs><style>.cls-1{fill:#00cac4;}.cls-2,.cls-4{fill:none;stroke-miterlimit:10;stroke-width:40px;}.cls-2{stroke:#fff;}.cls-3{fill:#fff;opacity:0.5;}.cls-4{stroke:#9d9d9c;}</style></defs><title>Coynitt-logo</title><path class="cls-1" d="M0,0H300a0,0,0,0,1,0,0V299.74a.26.26,0,0,1-.26.26H0a0,0,0,0,1,0,0V0A0,0,0,0,1,0,0Z"/><path class="cls-2" d="M218.32,212.2c-57.83,61.14-154.94,22.72-160.47-56.5C53.62,66.11,158.72,27.42,215.44,84.5"/><path class="cls-3" d="M192.21,149.24c-3.36,55.46-78.9,50.49-80.09,0C115.48,93.78,191,98.75,192.21,149.24Z"/><path class="cls-4" d="M227.16,98.83c18.86,26.78,20.59,69.64,2.25,98.48"/></svg>