<svg id="Layer_1" data-name="Layer 1" xmlns="http://www.w3.org/2000/svg" xmlns:xlink="http://www.w3.org/1999/xlink" viewBox="0 0 50 50"><defs><style>.cls-1{fill:none;stroke:#00cac4;stroke-miterlimit:10;stroke-width:3.25px;}.cls-2{fill:url(#radial-gradient);}.cls-3{fill:#fff;}</style><radialGradient id="radial-gradient" cx="25" cy="25" r="19.49" gradientUnits="userSpaceOnUse"><stop offset="0" stop-color="#66d7de"/><stop offset="0.09" stop-color="#58d5da"/><stop offset="0.36" stop-color="#32d0d1"/><stop offset="0.61" stop-color="#16cdca"/><stop offset="0.83" stop-color="#06cbc5"/><stop offset="1" stop-color="#00cac4"/></radialGradient></defs><title>logo</title><circle class="cls-1" cx="25" cy="25" r="21.66"/><circle class="cls-2" cx="25" cy="25" r="19.49"/><path class="cls-3" d="M36.09,33.78a14.24,14.24,0,0,1-4.79,3.8,13.47,13.47,0,0,1-5.91,1.36,13.31,13.31,0,0,1-6.91-1.88,14,14,0,0,1-5-5.08,14.06,14.06,0,0,1,0-14,14,14,0,0,1,5-5.08A13.5,13.5,0,0,1,31,12.23,13.83,13.83,0,0,1,34,14.15l-1.88,1.9a8.09,8.09,0,0,0-1.27-.89,8.17,8.17,0,0,0-3.53-1L26.77,16a7.88,7.88,0,0,1,3.47,1.2c.12.09.42.33.77.64h0l1.27,1.26,4.88-4.87.1-.09h0l-.07,0a16.43,16.43,0,0,0-5.36-3.85,15.73,15.73,0,0,0-14.47.8,16.24,16.24,0,0,0-5.84,5.89,16.36,16.36,0,0,0,0,16.18A16.15,16.15,0,0,0,17.36,39a15.81,15.81,0,0,0,14.94.6,15.71,15.71,0,0,0,5.54-4.45Z"/></svg>