<?xml version="1.0" encoding="utf-8"?>
<!-- Generator: Adobe Illustrator 19.2.1, SVG Export Plug-In . SVG Version: 6.00 Build 0)  -->
<svg version="1.1" id="layer" xmlns="http://www.w3.org/2000/svg" xmlns:xlink="http://www.w3.org/1999/xlink" x="0px" y="0px"
	 viewBox="0 0 652 652" style="enable-background:new 0 0 652 652;" xml:space="preserve">
<style type="text/css">
	.st0{fill-rule:evenodd;clip-rule:evenodd;}
	.st1{fill-rule:evenodd;clip-rule:evenodd;fill:#FFDD00;}
	.st2{fill-rule:evenodd;clip-rule:evenodd;fill:#FFFFFF;}
</style>
<rect x="26.5" y="258" class="st0" width="600" height="136.2"/>
<path class="st1" d="M452.1,317.8c-2.5,0-5.5,0.4-8,2.2v-1.9h-7.1v31h7.1v-18.7c0-2.8,2.3-6.1,6.8-6.1c4,0,6.6,2.6,6.6,6.5v18.4h7.1
	v-18.8C464.5,322.7,459.5,317.8,452.1,317.8L452.1,317.8z M291.7,317.8c-2.5,0-5.5,0.4-8,2.2v-1.9h-7.1v31h7.1v-18.7
	c0-2.8,2.3-6.1,6.8-6.1c4,0,6.6,2.6,6.6,6.5v18.4h7.1v-18.8C304.2,322.7,299.1,317.8,291.7,317.8L291.7,317.8z M367.4,317.8
	c-2.5,0-5.5,0.4-8,2.2v-1.9h-7.1v31h7.1v-18.7c0-2.8,2.3-6.1,6.8-6.1c4,0,6.6,2.6,6.6,6.5v18.4h7.1v-18.8
	C379.9,322.7,374.8,317.8,367.4,317.8L367.4,317.8z M177.5,330.2c-3.1-0.7-5.3-1.5-5.3-3.2c0-2.4,2.1-3.1,5.8-3.1l6.4,0v-5.7l-6.4,0
	c-5.6,0-12.6,1.2-12.6,9.2c0.1,3.6,2.6,6.4,7.4,7.9c1.1,0.3,2.2,0.6,3.3,0.8c3.3,0.8,6.1,1.5,6.2,3.9c0,2.2-2.9,3.4-5.4,3.5
	c-4.4,0-7.3-2.4-8.2-3.3l-4.6,4.2c0,0,4.1,5.2,13.1,5.2c5.9,0,12-3.7,11.9-9.8C188.9,333.8,183.1,331.5,177.5,330.2L177.5,330.2z
	 M239.7,330.4c-0.3-2-1.3-3.8-3-5c-1.8-1.3-3.5-1.5-5.4-1.5c-2.6,0-5,1.2-6.6,3.1c-1.3,1.5-1.9,3.5-1.9,3.5H239.7z M232,349.5
	c-9.3,0-16.3-6.8-16.3-15.9c0-2,0.3-4,1.1-5.9c1.1-2.9,3.1-5.3,5.6-7.1c2.8-1.9,6.2-2.9,9.6-2.9c4.5,0,8.1,1.5,10.8,4.2
	c1.8,1.9,3,4.2,3.7,6.7c0.6,2.2,0.7,4.4,0.7,6.7h-24.4l0.1,0.7c0.9,4.2,4.6,7,9.2,7c4,0,6.6-1.8,8-3.2l4.9,4.4
	C241.9,347.5,237.1,349.5,232,349.5L232,349.5z M152.7,330.4c-0.3-2-1.3-3.8-3-5c-1.8-1.3-3.5-1.5-5.4-1.5c-2.6,0-5,1.2-6.6,3.1
	c-1.3,1.5-1.9,3.5-1.9,3.5H152.7z M145,349.5c-9.4,0-16.3-6.8-16.4-15.9c0-2,0.3-4,1.1-5.9c1.1-2.9,3.1-5.3,5.6-7.1
	c2.8-1.9,6.2-2.9,9.6-2.9c4.5,0,8.1,1.5,10.7,4.2c1.8,1.9,3,4.2,3.7,6.7c0.6,2.2,0.7,4.4,0.7,6.7h-24.4l0.1,0.7c0.9,4.2,4.6,7,9.2,7
	c4,0,6.6-1.8,8-3.2l4.9,4.4C154.9,347.5,150.1,349.5,145,349.5L145,349.5z M122,307.9l-8.1,29.4l-9.7-29.4h-7.6l-9.8,29.4l-8.1-29.4
	h-7.5l11.4,41.3H90l10.3-30.6l10.3,30.6h7.5l11.4-41.3H122z M266,317.9c-2.1,0.3-4.4,1-6.4,2.5v-2.2h-7.1v31h7.1v-18.9
	c0-0.6,0.1-1.3,0.4-1.8c0.6-1.4,1.8-2.9,3.5-3.6c1.2-0.5,2.3-0.6,3.2-0.6c1,0,2.5,0.2,3.6,0.7v-6.6
	C270.3,318.3,268.1,317.6,266,317.9L266,317.9z M389.7,303.6c-3,0-5.4,2.3-5.4,5.2c0,1.3,0.5,2.5,1.3,3.4h8.1
	c0.8-0.9,1.3-2.1,1.3-3.4C395.1,305.9,392.7,303.6,389.7,303.6L389.7,303.6z M338.5,332.9c0,0,0.6,9.7-10.3,9.7
	c-10.9,0-10.3-9.7-10.3-9.7v-24.9h-7.5v24.7c0,10.3,7,17,17.8,17c10.8,0,17.8-6.6,17.8-16.9v-24.7h-7.5V332.9z M424.4,333.7
	c0-5.5-3.9-9.4-9.2-9.4c-5.4,0-9.3,4-9.3,9.4c0,5.4,3.9,9.4,9.3,9.4C420.5,343.1,424.4,339.1,424.4,333.7L424.4,333.7z M431.5,333.7
	c0,9-7,15.9-16.3,15.9c-9.3,0-16.4-6.8-16.4-15.9c0-9,7-15.9,16.4-15.9C424.4,317.8,431.5,324.6,431.5,333.7L431.5,333.7z
	 M386.2,318.2v31h7.1v-31H386.2z M211.2,342.1l1.6,5.7l-0.8,0.4c-1.8,0.8-3.5,1.4-6.1,1.4c-5.8,0-9.3-3.4-9.3-9l0-16.7h-5.9v-5.7
	h5.9v-8.2l7.1-1.8v10.1h7.5v5.7h-7.5v15.8c0,2,1.4,3.4,3.5,3.5c1.2,0.1,2.4-0.3,3.4-0.8L211.2,342.1z M211.2,342.1 M572.7,307.9
	v25.5c0,0,0.2,3.5-2.1,5.9c-1.5,1.5-3.7,2.3-6.7,2.3c-2.9,0-5.2-0.8-6.7-2.3c-2.3-2.4-2.1-5.8-2.1-5.9l0-25.5h-3.8l-5.4,19.2v6
	c0,5.1,1.7,9.4,4.9,12.5c3.2,3.1,7.7,4.7,13.1,4.7c5.3,0,9.9-1.6,13.1-4.7c3.2-3.1,4.9-7.4,4.9-12.5v-25.2H572.7z M545.9,307.9
	l-11.6,41.3h-8.4l-8.8-27.4l-8.8,27.4h-8.4l-11.7-41.3h9.1l7.2,26.1l8.4-26.1h8.4l8.5,26.3l7-26.3H545.9z M545.9,307.9"/>
<path class="st2" d="M483.4,349.2l-11.7-41.3h3l11.7,41.3H483.4z M483.4,349.2 M491.6,349.2l-11.7-41.3h3l11.7,41.3H491.6z
	 M491.6,349.2"/>
</svg>
