<svg id="Layer_1" data-name="Layer 1" xmlns="http://www.w3.org/2000/svg" viewBox="0 0 246.35 236.43"><defs><style>.cls-1{fill:#01b1a6;}.cls-2{fill:#fff;}</style></defs><title>checkers</title><rect class="cls-1" width="246.35" height="236.43"/><path class="cls-2" d="M168.62,253l9,2.73a16.59,16.59,0,0,1-2.86,6.35,12.45,12.45,0,0,1-4.86,3.84,18,18,0,0,1-7.38,1.3,21.49,21.49,0,0,1-8.88-1.58,14.08,14.08,0,0,1-5.95-5.56,18.88,18.88,0,0,1-2.5-10.18q0-8.26,4.4-12.72t12.45-4.44q6.3,0,9.91,2.55a14.92,14.92,0,0,1,5.35,7.82l-9.09,2a7.76,7.76,0,0,0-1-2.23,5.87,5.87,0,0,0-2.12-1.82,6.49,6.49,0,0,0-8.16,2.18q-1.41,2.09-1.41,6.56,0,5.55,1.68,7.6a6.64,6.64,0,0,0,9.2.4A10.24,10.24,0,0,0,168.62,253Z" transform="translate(-126.82 -136.74)"/><path class="cls-2" d="M178.32,233.33h9.25v12.28a12.52,12.52,0,0,1,3.76-2.8,10.64,10.64,0,0,1,4.41-.84,7.78,7.78,0,0,1,5.94,2.3q2.17,2.29,2.18,7v15.35h-9.31V253.39a4.84,4.84,0,0,0-.84-3.22,3,3,0,0,0-2.36-.94,3.37,3.37,0,0,0-2.73,1.27c-.7.85-1.05,2.37-1.05,4.57v11.6h-9.25Z" transform="translate(-126.82 -136.74)"/><path class="cls-2" d="M232.47,256.89H213.91a6,6,0,0,0,1.21,3.32,4.37,4.37,0,0,0,3.5,1.57,5.3,5.3,0,0,0,2.59-.68,6.21,6.21,0,0,0,1.62-1.53l9.12.85a13.18,13.18,0,0,1-5,5.22q-3,1.58-8.48,1.58a17.36,17.36,0,0,1-7.55-1.36,11,11,0,0,1-4.56-4.3,12.91,12.91,0,0,1-1.81-6.92,12.2,12.2,0,0,1,3.62-9.17q3.63-3.5,10-3.5a17.78,17.78,0,0,1,8.19,1.57,10.57,10.57,0,0,1,4.57,4.55,16.58,16.58,0,0,1,1.57,7.75Zm-9.41-4.43a6.28,6.28,0,0,0-1.45-3.85,4.54,4.54,0,0,0-6.61.59,6.45,6.45,0,0,0-1.06,3.26Z" transform="translate(-126.82 -136.74)"/><path class="cls-2" d="M251,257.21l8.8,1a12.15,12.15,0,0,1-2.39,4.76,10.94,10.94,0,0,1-4.24,3.13,16.7,16.7,0,0,1-6.56,1.12,24,24,0,0,1-6.4-.72,11.19,11.19,0,0,1-4.4-2.32,11.62,11.62,0,0,1-2.89-3.76,13.16,13.16,0,0,1-1.05-5.72,13.48,13.48,0,0,1,1.28-6.21,11.29,11.29,0,0,1,2.54-3.26,11.69,11.69,0,0,1,3.32-2.14A18.29,18.29,0,0,1,246,242q5.91,0,9,2.12a11.12,11.12,0,0,1,4.35,6.18l-8.71,1.16a4,4,0,0,0-1.49-2.33,4.84,4.84,0,0,0-2.9-.78,4.67,4.67,0,0,0-3.71,1.64,7.47,7.47,0,0,0-1.43,5,6.47,6.47,0,0,0,1.41,4.51,4.66,4.66,0,0,0,3.6,1.55,5,5,0,0,0,3.06-.93A5.64,5.64,0,0,0,251,257.21Z" transform="translate(-126.82 -136.74)"/><path class="cls-2" d="M259.54,233.33H269v17.21l6.92-8h11.39L278.65,251l9.16,15.69H277.38L272.49,257l-3.49,3.4v6.28h-9.46Z" transform="translate(-126.82 -136.74)"/><path class="cls-2" d="M312.11,256.89H293.55a6,6,0,0,0,1.2,3.32,4.38,4.38,0,0,0,3.5,1.57,5.34,5.34,0,0,0,2.6-.68,6,6,0,0,0,1.61-1.53l9.12.85a13.12,13.12,0,0,1-5.05,5.22q-3,1.58-8.48,1.58a17.36,17.36,0,0,1-7.55-1.36,11,11,0,0,1-4.56-4.3,12.91,12.91,0,0,1-1.81-6.92,12.17,12.17,0,0,1,3.63-9.17q3.63-3.5,10-3.5a17.76,17.76,0,0,1,8.18,1.57,10.59,10.59,0,0,1,4.58,4.55,16.7,16.7,0,0,1,1.57,7.75Zm-9.42-4.43a6.16,6.16,0,0,0-1.45-3.85,4.52,4.52,0,0,0-6.6.59,6.45,6.45,0,0,0-1.07,3.26Z" transform="translate(-126.82 -136.74)"/><path class="cls-2" d="M312.72,242.52h8.67v3.95a9.32,9.32,0,0,1,2.58-3.53,5.41,5.41,0,0,1,3.29-1,9.82,9.82,0,0,1,4.48,1.28l-2.87,6.59a7.38,7.38,0,0,0-2.59-.68,3.18,3.18,0,0,0-2.82,1.5q-1.44,2.11-1.44,7.91v8.1h-9.3Z" transform="translate(-126.82 -136.74)"/><path class="cls-2" d="M329.1,260l9.19-.86a4.55,4.55,0,0,0,1.59,2.34,4.72,4.72,0,0,0,2.73.7,4.62,4.62,0,0,0,2.89-.79,1.78,1.78,0,0,0,.8-1.48,1.69,1.69,0,0,0-1.05-1.54,18.47,18.47,0,0,0-4-.95,40.94,40.94,0,0,1-6.7-1.56,7.08,7.08,0,0,1-3.16-2.42,6.26,6.26,0,0,1-1.28-3.88,6.39,6.39,0,0,1,1.38-4.12,8.32,8.32,0,0,1,3.82-2.58,20.58,20.58,0,0,1,6.53-.85,22.57,22.57,0,0,1,6.38.66,8.22,8.22,0,0,1,3.43,2.05,10.64,10.64,0,0,1,2.29,3.75l-8.78.86a3,3,0,0,0-1.14-1.7,4.57,4.57,0,0,0-2.63-.73,3.76,3.76,0,0,0-2.29.56,1.66,1.66,0,0,0-.72,1.35,1.45,1.45,0,0,0,.91,1.34,15.19,15.19,0,0,0,4,.82,26.8,26.8,0,0,1,6.87,1.45,7.53,7.53,0,0,1,3.44,2.66,6.49,6.49,0,0,1,1.2,3.79,7.47,7.47,0,0,1-1.26,4.07,8.59,8.59,0,0,1-4,3.15,19.17,19.17,0,0,1-7.41,1.17q-6.61,0-9.42-1.89A8.47,8.47,0,0,1,329.1,260Z" transform="translate(-126.82 -136.74)"/></svg>