<svg id="Credit_Card_Chip" data-name="Credit Card Chip" xmlns="http://www.w3.org/2000/svg" viewBox="0 0 1593.85 1202.37"><defs><style>.cls-1{fill:#e0a338;}.cls-2{fill:#eaad49;}.cls-3{fill:#c28738;}</style></defs><title>vt</title><g id="Credit_Card_Chip-2" data-name="Credit Card Chip"><rect class="cls-1" width="1593.85" height="1202.37" rx="107.15"/><rect class="cls-2" x="523.15" y="394.64" width="547.56" height="413.07" rx="19.81"/><path class="cls-3" d="M1820.92,654.94V595.22H1458l-173.31,192.9a50.59,50.59,0,0,0-6.67-.46H1053.86V422.9H994.14V787.66H770a50.59,50.59,0,0,0-6.67.46h0L590,595.22h-363v59.72H563.41L720.88,830.21h0a45.43,45.43,0,0,0-.54,7.13V994.21H227.08v59.72H720.34v156.86a45.43,45.43,0,0,0,.54,7.13h0L563.41,1393.19H227.08v59.73H590L763.34,1260h0a50.6,50.6,0,0,0,6.67.45H994.14v364.77h59.72V1260.47H1278a50.6,50.6,0,0,0,6.67-.45L1458,1452.92h363v-59.73H1484.59L1327.13,1218a47.15,47.15,0,0,0,.53-7.16V1053.93h493.26V994.21H1327.66V837.35a47.06,47.06,0,0,0-.53-7.16l157.46-175.25ZM994.14,1200.72h-214V847.38h487.8v353.34H994.14Z" transform="translate(-227.08 -422.89)"/></g></svg>