<svg id="Layer_1" data-name="Layer 1" xmlns="http://www.w3.org/2000/svg" viewBox="0 0 402.15 241.6"><defs><style>.cls-1{fill:#009cb4;stroke:#009cb4;}.cls-1,.cls-10,.cls-11,.cls-12,.cls-13,.cls-14,.cls-17,.cls-18,.cls-19,.cls-2,.cls-3,.cls-4,.cls-5,.cls-6,.cls-7,.cls-8,.cls-9{stroke-miterlimit:3.86;}.cls-1,.cls-10,.cls-11,.cls-12,.cls-13,.cls-14,.cls-2,.cls-3,.cls-4,.cls-5,.cls-6,.cls-7,.cls-8,.cls-9{stroke-width:1.5px;}.cls-1,.cls-10,.cls-11,.cls-12,.cls-13,.cls-14,.cls-15,.cls-17,.cls-2,.cls-3,.cls-4,.cls-5,.cls-6,.cls-7,.cls-8,.cls-9{fill-rule:evenodd;}.cls-2{fill:#006891;stroke:#006891;}.cls-3{fill:#52ae32;stroke:#52ae32;}.cls-4{fill:#3e8638;stroke:#3e8638;}.cls-5{fill:#fbbb21;stroke:#fbbb21;}.cls-6{fill:#e28f2a;stroke:#e28f2a;}.cls-7{fill:#ec6608;stroke:#ec6608;}.cls-8{fill:#cc632d;stroke:#cc632d;}.cls-9{fill:#e30613;stroke:#e30613;}.cls-10{fill:#b61f29;stroke:#b61f29;}.cls-11{fill:#e6007e;stroke:#e6007e;}.cls-12{fill:#961e79;stroke:#961e79;}.cls-13{fill:#636aaf;stroke:#636aaf;}.cls-14{fill:#43358b;stroke:#43358b;}.cls-15,.cls-16,.cls-17,.cls-18{fill:#1d1d1b;}.cls-17,.cls-18{stroke:#1d1d1b;}.cls-17,.cls-18,.cls-19{stroke-width:0;}.cls-19{fill:#fff;stroke:#fff;}</style></defs><title>multichoice</title><polygon class="cls-1" points="188.77 141.15 4.54 92.38 0.93 67.7 188.77 141.15"/><polygon class="cls-2" points="188.77 141.15 0.93 67.7 47.29 63.49 188.77 141.15"/><polygon class="cls-3" points="194.79 139.95 55.12 58.07 62.94 32.18 194.79 139.95"/><polygon class="cls-4" points="194.79 139.95 62.94 32.18 101.47 35.79 194.79 139.95"/><polygon class="cls-5" points="197.8 139.34 112.91 33.38 130.97 11.11 197.8 139.34"/><polygon class="cls-6" points="197.8 139.34 130.97 11.11 161.07 22.55 197.8 139.34"/><polygon class="cls-7" points="201.41 139.34 171.91 22.55 200.81 1.48 201.41 139.34"/><polygon class="cls-8" points="201.41 139.34 230.91 21.34 200.81 1.48 201.41 139.34"/><polygon class="cls-9" points="203.82 138.74 241.75 23.75 271.85 9.9 203.82 138.74"/><polygon class="cls-10" points="203.82 138.74 271.85 9.9 291.72 33.38 203.82 138.74"/><polygon class="cls-11" points="207.43 139.95 300.75 37 339.88 32.18 207.43 139.95"/><polygon class="cls-12" points="207.43 139.95 349.51 58.67 339.88 32.18 207.43 139.95"/><polygon class="cls-13" points="212.25 141.15 356.14 64.09 401.29 67.7 212.25 141.15"/><polygon class="cls-14" points="212.25 141.15 401.29 67.7 398.88 94.19 212.25 141.15"/><polygon class="cls-15" points="35.46 222.4 35.46 241.35 37.98 241.35 37.98 231.57 38.03 231.57 41.57 241.35 44.46 241.35 40.44 231.57 44.16 222.4 41.57 222.4 38.08 231.57 38 231.57 37.98 222.4 35.46 222.4"/><path class="cls-15" d="M117.53,351.12l-4.13,19h2.47l.7-3.7h3.77l.7,3.7h2.54l-4.07-19Zm2.43,13.3h-3l1.51-9.63h.05l.95,6.89Z" transform="translate(-48.86 -128.73)"/><polygon class="cls-15" points="96.24 222.4 96.24 241.35 102.98 241.35 102.98 239.16 98.75 239.16 98.75 222.4 96.24 222.4"/><polygon class="cls-15" points="124.41 222.4 124.41 241.35 131.18 241.35 131.18 239.16 126.93 239.16 126.93 232.73 130.72 232.73 130.72 230.54 126.93 230.54 126.93 224.59 131.18 224.59 131.18 222.4 124.41 222.4"/><rect class="cls-16" x="152.99" y="222.4" width="2.51" height="18.95"/><path class="cls-15" d="M227.28,351.12v19H229c4.5,0,7.41-.41,7.41-9.15,0-9.6-3.37-9.81-6.33-9.81Zm6.49,9.81c0,3.21.17,7.14-4,7V353.26C234,353,233.77,358,233.77,360.93Z" transform="translate(-48.86 -128.73)"/><path class="cls-15" d="M263.3,350.87c-4.87,0-4.92,6.31-4.92,9.73s.05,9.73,4.92,9.73,4.93-6.31,4.93-9.73S268.18,350.87,263.3,350.87Zm0,2.37c2,0,2.26,3.34,2.26,7.36s-.27,7.37-2.26,7.37S261,364.62,261,360.6,261.32,353.24,263.3,353.24Z" transform="translate(-48.86 -128.73)"/><path class="cls-15" d="M296.52,351.5a5.06,5.06,0,0,0-2.66-.63c-2.84,0-4.25,2.19-4.25,4.85,0,5,5.31,5.74,5.31,9.51,0,1.4-.66,2.63-2.22,2.63a4,4,0,0,1-2.48-1v2.54a4.36,4.36,0,0,0,2.76.91c2.79,0,4.45-2.29,4.45-4.95s-1-3.82-2.69-5.56l-1.91-2.08a3.11,3.11,0,0,1-.7-2.07,2.27,2.27,0,0,1,2.23-2.43,3.42,3.42,0,0,1,2.14.8Z" transform="translate(-48.86 -128.73)"/><path class="cls-15" d="M326.76,351.43a3.9,3.9,0,0,0-2.19-.56c-5.15,0-5.63,6.24-5.63,10,0,4,.68,9.43,5.8,9.43a3.6,3.6,0,0,0,2-.53v-2.21a3.16,3.16,0,0,1-1.51.38c-3.45,0-3.65-4.73-3.65-7.24s0-7.49,3.55-7.49a3.7,3.7,0,0,1,1.61.47Z" transform="translate(-48.86 -128.73)"/><path class="cls-15" d="M353,350.87c-4.88,0-4.93,6.31-4.93,9.73s.05,9.73,4.93,9.73,4.92-6.31,4.92-9.73S357.87,350.87,353,350.87Zm0,2.37c2,0,2.26,3.34,2.26,7.36S355,368,353,368s-2.27-3.35-2.27-7.37S351,353.24,353,353.24Z" transform="translate(-48.86 -128.73)"/><path class="cls-15" d="M382.88,370.08v-8.4c3.92.15,5.43-1.63,5.43-5.48,0-4.87-2.77-5.08-4.93-5.08h-3v19Zm.35-16.82c1.91,0,2.41,1.43,2.41,3.14,0,2.11-.6,3.3-2.76,3.15v-6.29Z" transform="translate(-48.86 -128.73)"/><polygon class="cls-15" points="361.11 222.4 361.11 241.35 367.87 241.35 367.87 239.16 363.63 239.16 363.63 232.73 367.42 232.73 367.42 230.54 363.63 230.54 363.63 224.59 367.87 224.59 367.87 222.4 361.11 222.4"/><path class="cls-17" d="M65.06,287l12.29-8.2h8.13v7.76l9.61-7.76h9.09v47.31H94.62l-.27-41.78-8.87,7s-.89,25.69-.26,34.59l-9.7.16V284.77l-10,6.82.38,34.56H56V278.85h9.1Z" transform="translate(-48.86 -128.73)"/><path class="cls-17" d="M269.76,287.5h-3.19V283l-10.52,0,.22,40.07c3.64,1,7.57.57,9.39-3.19V315.7h3.64c1,4.55-1.82,8.19-5.46,10l-17.28.45.34-42.24c4.66-7.5,15.52-4.06,22.86-4.61Z" transform="translate(-48.86 -128.73)"/><polygon class="cls-17" points="78.97 192.89 78.97 192.89 89.89 185.61 89.89 158.77 98.53 158.77 98.53 197.43 89.89 197.43 89.89 189.7 78.02 197.42 70.33 197.43 70.33 158.77 78.97 158.77 78.97 192.89"/><polygon class="cls-17" points="123.55 194.71 134.01 194.74 134.01 197.43 114.45 197.43 114.45 158.77 123.55 158.77 123.55 194.71"/><polygon class="cls-17" points="164.04 161.5 154.03 161.5 154 197.43 144.93 197.43 144.93 161.57 134.01 161.5 134.01 158.77 164.04 158.77 164.04 161.5"/><rect class="cls-18" x="173.13" y="158.77" width="9.1" height="38.66"/><polygon class="cls-17" points="240.46 175.6 250.92 168.32 250.92 158.77 260.02 158.77 260.02 197.43 250.92 197.43 250.92 172.87 240.46 180.15 240.46 197.43 231.36 197.43 231.36 158.77 240.46 158.77 240.46 175.6"/><path class="cls-17" d="M352.55,291.14v31.38c-5.35,6.48-16.38,2.84-24.11,3.19-1.6-.35-3.53-.91-4.1-2.73V291.14c5.69-6.49,17-2.85,25-3.19A7.18,7.18,0,0,1,352.55,291.14Z" transform="translate(-48.86 -128.73)"/><rect class="cls-18" x="319.61" y="158.77" width="9.1" height="38.66"/><path class="cls-17" d="M413.05,294.77h-3.19v-4.09c-2.16-.8-4.89-.34-7.28-.45L402.13,323c1.59.79,3.64.34,5.46.45,2.5-1.36,2.39-3.86,2.27-6.37h2.73c.57,3.64-.34,7.51-4.09,8.65H393c.34-11.83-.8-24.23.91-35.48,4.32-5,13.46-3.26,19.11-2.73Z" transform="translate(-48.86 -128.73)"/><polygon class="cls-17" points="395.12 161.04 385.11 161.04 384.66 173.78 392.85 173.75 392.85 176.51 385.11 176.51 384.66 194.71 395.12 194.83 395.12 197.43 375.56 197.43 375.56 158.77 395.12 158.77 395.12 161.04"/><rect class="cls-19" x="285.04" y="161.95" width="9.55" height="32.75"/></svg>